<svg xmlns="http://www.w3.org/2000/svg" viewBox="0 0 256 256" width="256" height="256">
  <defs>
    <radialGradient id="cheek-i" cx="0.5" cy="0.5" r="0.5">
      <stop offset="0" stop-color="#ffb3c1" stop-opacity="0.85"/>
      <stop offset="1" stop-color="#ffb3c1" stop-opacity="0"/>
    </radialGradient>
  </defs>
  <!-- ears -->
  <ellipse cx="78" cy="62" rx="22" ry="24" fill="#1f1f24"/>
  <ellipse cx="178" cy="62" rx="22" ry="24" fill="#1f1f24"/>
  <ellipse cx="78" cy="64" rx="11" ry="13" fill="#3a3a42"/>
  <ellipse cx="178" cy="64" rx="11" ry="13" fill="#3a3a42"/>
  <!-- head -->
  <ellipse cx="128" cy="138" rx="78" ry="74" fill="#fff" stroke="#1f1f24" stroke-width="3"/>
  <!-- eye patches -->
  <ellipse cx="98" cy="130" rx="20" ry="26" fill="#1f1f24" transform="rotate(-12 98 130)"/>
  <ellipse cx="158" cy="130" rx="20" ry="26" fill="#1f1f24" transform="rotate(12 158 130)"/>
  <!-- eyes -->
  <circle cx="100" cy="132" r="7" fill="#fff"/>
  <circle cx="156" cy="132" r="7" fill="#fff"/>
  <circle cx="102" cy="130" r="4" fill="#1f1f24"/>
  <circle cx="158" cy="130" r="4" fill="#1f1f24"/>
  <circle cx="103" cy="129" r="1.5" fill="#fff"/>
  <circle cx="159" cy="129" r="1.5" fill="#fff"/>
  <!-- cheeks -->
  <circle cx="78" cy="160" r="11" fill="url(#cheek-i)"/>
  <circle cx="178" cy="160" r="11" fill="url(#cheek-i)"/>
  <!-- nose -->
  <ellipse cx="128" cy="158" rx="6" ry="4.5" fill="#1f1f24"/>
  <!-- happy mouth -->
  <path d="M114 172 Q128 184 142 172" stroke="#1f1f24" stroke-width="3" fill="none" stroke-linecap="round"/>
  <!-- sparkle -->
  <g transform="translate(206 70)" fill="#ffd23a">
    <path d="M0 -10 L3 -3 L10 0 L3 3 L0 10 L-3 3 L-10 0 L-3 -3 Z"/>
  </g>
</svg>
