<svg xmlns="http://www.w3.org/2000/svg" viewBox="0 0 256 256" width="256" height="256">
  <!-- PLACEHOLDER: 20~0% energy, eyes mostly closed but not asleep yet. Replace with 3D body version. -->
  <g transform="rotate(-14 128 152)">
    <ellipse cx="78" cy="80" rx="22" ry="22" fill="#2a2a30"/>
    <ellipse cx="180" cy="84" rx="22" ry="20" fill="#2a2a30"/>
    <ellipse cx="78" cy="82" rx="11" ry="11" fill="#46464e"/>
    <ellipse cx="180" cy="86" rx="11" ry="10" fill="#46464e"/>
    <ellipse cx="128" cy="152" rx="80" ry="72" fill="#e9e7e0" stroke="#2a2a30" stroke-width="3"/>
    <ellipse cx="100" cy="148" rx="22" ry="24" fill="#2a2a30" transform="rotate(-18 100 148)"/>
    <ellipse cx="160" cy="148" rx="22" ry="24" fill="#2a2a30" transform="rotate(18 160 148)"/>
    <path d="M88 148 Q100 158 112 148" stroke="#fff" stroke-width="4" fill="none" stroke-linecap="round"/>
    <path d="M148 148 Q160 158 172 148" stroke="#fff" stroke-width="4" fill="none" stroke-linecap="round"/>
    <ellipse cx="128" cy="178" rx="6" ry="4.5" fill="#2a2a30"/>
    <path d="M122 192 Q128 196 134 192" stroke="#2a2a30" stroke-width="3" fill="none" stroke-linecap="round"/>
  </g>
  <g fill="#a8b1ff" font-family="-apple-system, sans-serif" font-weight="700" opacity="0.65">
    <text x="208" y="58" font-size="14">z</text>
  </g>
</svg>
